<?xml version="1.0" encoding="UTF-8"?>
<!DOCTYPE svg PUBLIC "-//W3C//DTD SVG 1.1//EN" "http://www.w3.org/Graphics/SVG/1.1/DTD/svg11.dtd">
<!-- Creator: CorelDRAW X7 -->
<svg xmlns="http://www.w3.org/2000/svg" xml:space="preserve" width="4.45185in" height="2.0071in" version="1.1" style="shape-rendering:geometricPrecision; text-rendering:geometricPrecision; image-rendering:optimizeQuality; fill-rule:evenodd; clip-rule:evenodd"
viewBox="0 0 6900 3111"
 xmlns:xlink="http://www.w3.org/1999/xlink">
 <defs>
  <style type="text/css">
   <![CDATA[
    .fil2 {fill:#fff}
    .fil1 {fill:#fff}
    .fil0 {fill:#fff;fill-rule:nonzero}
   ]]>
  </style>
 </defs>
 <g id="Layer_x0020_1">
  <metadata id="CorelCorpID_0Corel-Layer"/>
  <path class="fil0" d="M430 2563c36,-32 58,-76 58,-131 0,-115 -94,-190 -210,-190l-261 0 0 666 280 0c119,0 215,-77 215,-195 0,-68 -33,-119 -82,-150zm-152 -178c35,0 58,25 58,59 0,34 -24,59 -58,59l-109 0 0 -118 109 0zm19 380l-128 0 0 -127 128 0c38,0 62,26 62,63 0,37 -24,64 -62,64z"/>
  <path id="1" class="fil0" d="M720 2727l337 0c4,-18 6,-37 6,-57 0,-144 -103,-251 -242,-251 -150,0 -252,109 -252,251 0,142 100,251 263,251 90,0 161,-33 207,-98l-114 -66c-19,21 -52,37 -91,37 -52,0 -96,-18 -114,-67zm-3 -106c13,-49 49,-76 103,-76 43,0 86,20 101,76l-204 0z"/>
  <path id="2" class="fil0" d="M1424 2432l-89 291 -106 -291 -157 0 190 454c-21,58 -53,79 -119,79l0 133c133,6 217,-54 271,-205l162 -461 -152 0z"/>
  <path id="3" class="fil0" d="M1838 2921c139,0 251,-109 251,-251 0,-142 -112,-251 -251,-251 -140,0 -252,109 -252,251 0,142 112,251 252,251zm0 -139c-62,0 -110,-45 -110,-112 0,-68 48,-112 110,-112 61,0 109,44 109,112 0,67 -48,112 -109,112z"/>
  <path id="4" class="fil0" d="M2449 2419c-63,0 -110,23 -136,58l0 -45 -143 0 0 476 143 0 0 -260c0,-67 36,-98 88,-98 46,0 83,28 83,87l0 271 143 0 0 -292c0,-129 -82,-197 -178,-197z"/>
  <path id="5" class="fil0" d="M3070 2242l0 235c-32,-36 -78,-58 -142,-58 -125,0 -227,109 -227,251 0,142 102,251 227,251 64,0 110,-22 142,-58l0 45 142 0 0 -666 -142 0zm-114 544c-65,0 -113,-45 -113,-116 0,-71 48,-116 113,-116 66,0 114,45 114,116 0,71 -48,116 -114,116z"/>
  <path id="6" class="fil0" d="M4218 2537l-334 0 0 133 178 0c-24,64 -82,103 -170,103 -130,0 -209,-83 -209,-196 0,-117 83,-200 195,-200 76,0 135,34 163,78l129 -74c-56,-89 -163,-152 -291,-152 -195,0 -348,154 -348,347 0,191 150,345 359,345 186,0 328,-124 328,-327l0 -57z"/>
  <path id="7" class="fil0" d="M4644 2432l0 45c-32,-36 -78,-58 -142,-58 -125,0 -227,109 -227,251 0,142 102,251 227,251 64,0 110,-22 142,-58l0 45 142 0 0 -476 -142 0zm-113 354c-66,0 -114,-45 -114,-116 0,-71 48,-116 114,-116 65,0 113,45 113,116 0,71 -48,116 -113,116z"/>
  <path id="8" class="fil0" d="M5033 2517l0 -85 -142 0 0 476 142 0 0 -215c0,-94 84,-118 143,-109l0 -161c-60,0 -124,30 -143,94z"/>
  <path id="9" class="fil0" d="M5573 2432l0 45c-31,-36 -78,-58 -141,-58 -125,0 -228,109 -228,251 0,142 103,251 228,251 63,0 110,-22 141,-58l0 45 143 0 0 -476 -143 0zm-113 354c-65,0 -113,-45 -113,-116 0,-71 48,-116 113,-116 66,0 113,45 113,116 0,71 -47,116 -113,116z"/>
  <path id="10" class="fil0" d="M6169 2432l0 49c-31,-39 -77,-62 -138,-62 -135,0 -234,110 -234,241 0,132 99,242 234,242 61,0 107,-23 138,-62l0 44c0,67 -41,102 -107,102 -63,0 -90,-27 -108,-60l-122 70c44,78 126,115 225,115 127,0 251,-67 251,-227l0 -452 -139 0zm-115 339c-67,0 -115,-45 -115,-111 0,-65 48,-110 115,-110 68,0 115,45 115,110 0,66 -47,111 -115,111z"/>
  <path id="11" class="fil0" d="M6540 2727l337 0c4,-18 6,-37 6,-57 0,-144 -102,-251 -241,-251 -150,0 -253,109 -253,251 0,142 101,251 263,251 91,0 161,-33 207,-98l-114 -66c-19,21 -52,37 -91,37 -52,0 -96,-18 -114,-67zm-3 -106c13,-49 50,-76 104,-76 43,0 85,20 101,76l-205 0z"/>
  <g id="_316928616">
   <path class="fil1" d="M218 491l1 153c53,12 95,32 139,53 8,130 -119,256 -222,302 -37,17 -112,31 -136,44 -1,40 21,146 28,186 27,140 84,437 94,554 -30,15 -78,40 -112,57l2 232c33,7 545,2 554,-3 18,-9 10,-35 10,-59 7,-271 213,-520 486,-568 98,-17 161,-16 259,1 53,10 164,54 196,84 -6,23 -35,52 -50,67 -67,-21 -164,-125 -402,-77 -127,27 -243,112 -307,200 -78,108 -106,234 -95,354 12,-3 24,-6 37,-7 2,-201 130,-404 351,-464 61,-17 139,-25 209,-12 20,4 62,13 99,26 48,16 95,43 133,76 3,3 7,6 11,9 35,19 86,85 104,114 31,49 50,98 60,160 4,-1 7,-2 11,-2 -6,-58 -23,-112 -44,-161 -33,-76 -90,-133 -102,-160 8,-19 40,-56 59,-68 35,19 92,93 113,124 40,60 55,121 78,158 -1,-46 -46,-132 -69,-168 -14,-22 -33,-48 -49,-68 -16,-18 -50,-46 -58,-68 32,-56 387,-451 405,-504 -65,15 -348,308 -421,391 -16,19 -38,50 -55,61 -114,-58 -177,-101 -321,-110 -369,-22 -653,236 -693,616 -45,5 -426,4 -439,-7 -10,-10 -6,-41 -6,-59 0,-21 0,-42 1,-64 20,-13 97,-50 121,-59 5,-54 -40,-292 -52,-364 -9,-56 -56,-324 -53,-359 131,-31 234,-113 296,-215 25,-41 65,-139 61,-198 -6,-85 -129,-94 -137,-118 44,-22 376,-47 471,-76 138,-43 284,-84 425,-126 657,-196 1239,-293 1939,-236 306,25 599,143 856,251 192,81 374,175 561,265 97,47 97,73 202,73 530,-1 1428,54 1844,365 51,38 107,84 143,133 60,84 52,99 52,222 1,180 11,380 2,557 -72,4 -654,11 -682,2 -37,-457 -469,-711 -867,-584 -66,20 -121,50 -169,84 -52,36 -88,77 -132,121 -36,-8 -384,-313 -441,-363l-419 -390c-134,-130 -281,-254 -470,-340 -188,-86 -460,-128 -681,-50 51,2 128,-8 190,-8 392,2 656,203 920,473 196,200 406,387 633,558 74,56 156,126 228,172 -10,21 -27,46 -39,71 -16,32 -23,49 -35,84 -23,67 -25,119 -35,195 -88,8 -187,5 -278,6l-574 6c-94,0 -183,8 -272,11 34,-7 231,3 284,3l584 8c55,1 256,10 295,0 2,-76 9,-136 31,-200 14,-42 50,-127 79,-151l57 37c-9,43 -86,140 -76,303 14,-1 28,-2 42,-1 2,-110 39,-208 89,-256 10,-16 22,-31 35,-45 16,-34 92,-87 129,-105 316,-159 666,39 714,332 3,20 5,39 6,58 3,1 6,2 9,4 -2,-295 -226,-564 -589,-522 -101,12 -187,59 -258,123l-47 47c-13,14 -5,8 -21,16 -17,-7 -42,-28 -52,-42 14,-32 95,-95 124,-113 172,-104 380,-138 565,-53 174,80 284,198 340,375 26,80 22,126 27,215 70,3 776,15 845,4 0,-191 2,-383 3,-574 0,-222 16,-277 -147,-435 -387,-375 -1302,-448 -1846,-464 -46,-1 -94,-1 -140,-1 -54,-1 -72,-18 -108,-38 -290,-159 -688,-334 -1004,-441 -490,-167 -1058,-152 -1560,-78 -168,25 -322,63 -480,98 -126,28 -336,83 -455,124l-442 137c-141,33 -379,41 -500,79zm3277 525c-22,3 -148,55 -182,68 -159,62 -466,161 -633,135 -163,-25 -219,-110 -334,-177 -132,-78 -237,-90 -417,-100 -76,-174 -274,-208 -506,-184 -108,11 -199,31 -297,56 -125,31 -173,30 -239,-62l-11 -14c2,60 48,106 96,126 120,50 309,-55 602,-39 86,4 182,27 241,84 29,29 23,31 41,71 27,59 92,45 168,50 130,10 229,47 332,114 52,34 76,58 132,87 118,59 228,69 377,40 201,-38 483,-165 630,-255zm-2915 533c12,-6 110,-85 172,-119 158,-87 298,-117 485,-104 46,3 85,9 125,17 23,4 41,7 61,14 18,5 42,14 59,15 -64,-22 -55,-40 -188,-66 -75,-15 -153,-26 -237,-22 -209,8 -344,111 -394,125l50 -360c24,0 121,39 237,41 212,5 350,-72 598,41 26,11 76,39 102,44 -15,-27 -63,-55 -90,-72 -27,-18 -72,-41 -105,-54 -290,-118 -378,22 -692,-76 -61,-19 -88,-47 -116,-48 -15,41 -70,564 -67,624zm1325 311c44,-18 94,-102 224,-143 263,-83 393,82 599,100 100,8 232,-22 264,-105l-25 -21c-25,-19 -48,-43 -64,-72 -83,-152 190,-252 233,-283 -55,0 -189,76 -236,129 -111,127 11,221 25,253 -41,56 -185,35 -242,20 -78,-20 -139,-60 -215,-89 -284,-108 -447,42 -484,45 -31,-75 -8,-77 -92,-193 -45,-61 -67,-31 19,-161 102,-153 191,-165 350,-167 -17,-13 -41,-15 -63,-16 -188,-10 -264,95 -365,219 -21,26 -72,61 -42,103 24,34 38,40 71,97 69,121 47,143 43,284zm1095 -533c42,-3 114,-37 155,-52 56,-20 95,-36 148,-55 195,-70 438,-209 626,-92 117,73 104,152 89,300l17 -15c56,-72 73,-233 -27,-325 -88,-81 -221,-110 -365,-72 -129,33 -485,205 -623,293l-20 18zm-3 452c80,-5 82,-71 353,-6 102,25 243,78 363,37 93,-33 178,-110 213,-201 41,-106 10,-276 -47,-330 1,57 19,98 17,169 -2,57 -15,108 -39,147 -203,318 -621,6 -860,184zm1106 -994c25,24 234,-12 307,25 24,12 37,187 35,222 -1,30 -10,48 -10,78 29,-28 45,-113 50,-164 5,-38 20,-170 -7,-192 -49,-40 -325,10 -375,31z"/>
   <g>
    <path class="fil2" d="M5763 1776c-1,1 -19,19 -22,22 -8,7 -15,14 -22,22 -30,29 -77,8 -76,-31 0,-13 5,-23 14,-31 2,-3 43,-43 44,-45 -10,-3 -17,-5 -28,-5 -57,-3 -104,41 -106,97 -1,12 1,20 -3,32 -2,9 -6,16 -11,22 -5,7 -11,11 -18,16 -25,21 -49,41 -74,62l-82 70c-4,2 -6,5 -9,8l-19 16c-3,2 -6,5 -9,7l-27 24c-6,5 -12,11 -18,16 -8,7 -19,17 -27,24l-36 32c-7,7 -20,18 -25,26 -23,32 -16,76 8,99 7,6 12,10 20,15 26,13 57,10 79,-6 10,-7 14,-13 22,-21 1,-1 2,-3 4,-4 7,-7 17,-20 24,-27 8,-9 20,-23 28,-31 2,-2 2,-3 4,-5 5,-5 14,-16 20,-23 1,-1 3,-3 4,-4 6,-8 17,-19 24,-27 2,-4 5,-6 8,-9 2,-4 5,-6 7,-10 6,-5 11,-12 16,-18 6,-6 11,-12 16,-18 10,-11 22,-26 31,-37 26,-30 52,-62 77,-93 10,-12 18,-25 37,-30 18,-5 31,4 62,-6 12,-4 22,-10 32,-18 9,-7 18,-18 24,-28 9,-16 14,-35 13,-55 0,-6 -3,-24 -6,-28z"/>
    <path class="fil1" d="M5429 1776c-4,2 -9,2 -13,3 -22,5 -40,13 -60,23 -7,4 -17,11 -20,13 -3,-1 -5,-3 -7,-5 -6,-3 -47,-30 -49,-31l-38 38c1,3 35,52 36,56 -2,4 -8,13 -12,20 -4,7 -8,14 -11,22 -3,8 -6,15 -9,24 -1,4 -2,8 -3,13 -1,2 -1,4 -2,7 -2,9 3,6 -33,13 -11,3 -22,6 -33,7l0 54 64 14c1,0 0,0 1,0 0,1 5,23 6,25 2,9 5,16 8,24 2,-1 12,-11 15,-13 8,-7 20,-19 29,-26 3,-2 13,-12 15,-13 0,-1 -3,-17 -4,-23 -2,-25 2,-50 10,-72 7,-17 15,-30 25,-43 2,-3 4,-6 6,-8l14 -14c32,-28 80,-43 125,-37 12,1 23,4 34,7 3,1 7,4 10,4 3,-2 8,-8 11,-12 11,-18 7,-29 8,-48 0,-2 1,-7 1,-10 -12,-3 -18,-6 -31,-9 -4,-1 -9,-1 -12,-3l-14 -64 -53 0 -14 64z"/>
    <path class="fil1" d="M5433 2163c-2,3 -4,5 -6,7 -6,7 -15,16 -20,22l-26 30c2,2 20,7 22,8 4,1 25,6 25,6 2,1 7,29 8,32l6 31c1,2 0,1 1,2l53 0c3,-14 8,-34 11,-49 0,-3 2,-14 4,-16 0,0 23,-5 26,-6 8,-3 16,-6 24,-9 11,-5 22,-11 32,-17 3,-2 7,-5 10,-6 3,1 52,33 55,35 2,0 37,-36 39,-38 -1,-2 -3,-5 -5,-7 -1,-2 -3,-4 -4,-6l-27 -42 12 -20c8,-14 15,-31 20,-47 1,-4 2,-8 3,-13 1,-4 2,-9 3,-13l65 -14 0 -54 -65 -13c-1,-10 -8,-36 -12,-43 -3,0 -10,2 -15,2 -17,0 -27,-5 -41,6 -4,2 -6,4 -9,8 -4,5 -5,3 -2,10 18,47 12,96 -10,135 -28,53 -87,86 -148,83 -5,0 -10,-1 -14,-1 -4,-1 -12,-3 -15,-3z"/>
    <path class="fil1" d="M5281 2148c-21,3 -39,23 -35,48 3,21 22,38 47,35 21,-3 39,-23 36,-48 -4,-21 -23,-39 -48,-35z"/>
   </g>
   <g>
    <path class="fil2" d="M892 1776c2,1 20,19 23,22 7,7 14,14 22,22 29,29 76,8 76,-31 -1,-13 -6,-23 -14,-31 -3,-3 -43,-43 -44,-45 9,-3 17,-5 28,-5 57,-3 104,41 106,97 0,12 -1,20 2,32 3,9 7,16 12,22 5,7 10,11 17,16 25,21 50,41 75,62l82 70c3,2 6,5 9,8l18 16c3,2 6,5 9,7l28 24c6,5 11,11 18,16 8,7 18,17 27,24l35 32c8,7 20,18 26,26 23,32 16,76 -9,99 -6,6 -11,10 -19,15 -26,13 -57,10 -80,-6 -10,-7 -13,-13 -21,-21 -2,-1 -3,-3 -4,-4 -7,-7 -17,-20 -24,-27 -9,-9 -20,-23 -28,-31 -2,-2 -3,-3 -4,-5 -6,-5 -14,-16 -20,-23 -2,-1 -3,-3 -4,-4 -7,-8 -18,-19 -24,-27 -3,-4 -5,-6 -8,-9 -3,-4 -5,-6 -8,-10 -5,-5 -10,-12 -16,-18 -5,-6 -10,-12 -15,-18 -10,-11 -22,-26 -32,-37 -26,-30 -51,-62 -76,-93 -10,-12 -18,-25 -38,-30 -18,-5 -30,4 -61,-6 -13,-4 -23,-10 -33,-18 -8,-7 -17,-18 -23,-28 -9,-16 -14,-35 -13,-55 0,-6 2,-24 5,-28z"/>
    <path class="fil1" d="M1227 1776c4,2 9,2 13,3 22,5 40,13 59,23 7,4 18,11 21,13 2,-1 4,-3 7,-5 6,-3 47,-30 49,-31l37 38c-1,3 -34,52 -36,56 3,4 9,13 13,20 4,7 8,14 11,22 3,8 6,15 8,24 2,4 3,8 4,13 0,2 1,4 1,7 2,9 -2,6 34,13 10,3 22,6 32,7l0 54 -63 14c-1,0 -1,0 -1,0 0,1 -5,23 -6,25 -3,9 -6,16 -8,24 -2,-1 -13,-11 -15,-13 -9,-7 -21,-19 -30,-26 -2,-2 -13,-12 -14,-13 0,-1 3,-17 3,-23 2,-25 -1,-50 -10,-72 -6,-17 -14,-30 -24,-43 -2,-3 -5,-6 -7,-8l-14 -14c-31,-28 -79,-43 -125,-37 -11,1 -22,4 -33,7 -3,1 -8,4 -10,4 -4,-2 -9,-8 -11,-12 -12,-18 -7,-29 -9,-48 0,-2 -1,-7 -1,-10 13,-3 19,-6 32,-9 3,-1 9,-1 11,-3l14 -64 54 0 14 64z"/>
    <path class="fil1" d="M1223 2163c2,3 4,5 6,7 5,7 14,16 20,22l26 30c-2,2 -21,7 -23,8 -3,1 -24,6 -25,6 -1,1 -6,29 -7,32l-7 31c0,2 0,1 -1,2l-53 0c-2,-14 -7,-34 -10,-49 -1,-3 -3,-14 -4,-16 0,0 -23,-5 -26,-6 -8,-3 -17,-6 -24,-9 -11,-5 -22,-11 -33,-17 -3,-2 -6,-5 -9,-6 -3,1 -53,33 -56,35 -1,0 -37,-36 -38,-38 1,-2 3,-5 4,-7 2,-2 3,-4 5,-6l27 -42 -13 -20c-7,-14 -15,-31 -19,-47 -2,-4 -3,-8 -4,-13 -1,-4 -2,-9 -3,-13l-64 -14 0 -54 64 -13c2,-10 8,-36 12,-43 4,0 11,2 15,2 18,0 28,-5 42,6 4,2 6,4 8,8 5,5 5,3 3,10 -18,47 -12,96 9,135 29,53 88,86 148,83 5,0 10,-1 15,-1 4,-1 12,-3 15,-3z"/>
    <path class="fil1" d="M1375 2148c21,3 39,23 35,48 -3,21 -23,38 -48,35 -21,-3 -39,-23 -35,-48 3,-21 23,-39 48,-35z"/>
   </g>
  </g>
 </g>
</svg>
